# xmcd
#
# Track frame offsets: 
#        150
#        30062
#        53946
#        80233
#        103569
#        127973
#        166302
#
# Disc length: 2914 seconds
#
# Revision: 0
# Processed by: cddbd v1.5.2PL0 Copyright (c) Steve Scherf et al.
# Submitted via: ExactAudioCopy v0.99pb4
#
DISCID=4d0b6007
DTITLE=Ghost Box Orchestra - The Only Light On
DYEAR=2010
DGENRE=Psychedelic Rock
TTITLE0=The Lodge
TTITLE1=Midday
TTITLE2=Oh, The Moon Hangs Low
TTITLE3=The Only Light On
TTITLE4=Bounce and Float
TTITLE5=Skippin' Stone
TTITLE6=Sunrising (improv)
EXTD=
EXTT0=
EXTT1=
EXTT2=
EXTT3=
EXTT4=
EXTT5=
EXTT6=
PLAYORDER=
